<svg width="85" height="83" viewBox="0 0 85 83" fill="none" xmlns="http://www.w3.org/2000/svg">
<path d="M42.5 0.0518799C19.0188 0.0518799 0 19.0813 0 42.5519C0 61.3333 12.1762 77.2602 29.0594 82.8737C31.1844 83.274 31.9635 81.96 31.9635 80.8302C31.9635 79.8208 31.9281 77.1469 31.9104 73.6052C20.0883 76.1694 17.595 67.9031 17.595 67.9031C15.6613 62.9979 12.8669 61.6875 12.8669 61.6875C9.01708 59.0525 13.1644 59.1056 13.1644 59.1056C17.4321 59.4031 19.674 63.4831 19.674 63.4831C23.4635 69.9821 29.6225 68.105 32.0521 67.0177C32.4346 64.2694 33.529 62.3958 34.7438 61.3333C25.3052 60.2708 15.385 56.6158 15.385 40.3313C15.385 35.6917 17.0319 31.9021 19.759 28.9271C19.2808 27.854 17.8465 23.5331 20.1308 17.6788C20.1308 17.6788 23.6902 16.5383 31.8183 22.035C35.2183 21.0894 38.8308 20.6219 42.4433 20.6006C46.0558 20.6219 49.6683 21.0894 53.0683 22.035C61.1433 16.5383 64.7027 17.6788 64.7027 17.6788C66.9871 23.5331 65.5527 27.854 65.1277 28.9271C67.8371 31.9021 69.484 35.6917 69.484 40.3313C69.484 56.6583 59.5496 60.2531 50.0933 61.2979C51.5808 62.5729 52.9621 65.1796 52.9621 69.1604C52.9621 74.8483 52.909 79.4171 52.909 80.7983C52.909 81.914 53.6527 83.2421 55.8308 82.8171C72.8344 77.2425 85 61.305 85 42.5519C85 19.0813 65.9706 0.0518799 42.5 0.0518799" fill="#FDFDFD"/>
</svg>
