<svg width="85" height="85" viewBox="0 0 85 85" fill="none" xmlns="http://www.w3.org/2000/svg">
<path d="M42.5 0C30.9542 0 29.5127 0.053125 24.9794 0.255C20.4531 0.4675 17.3719 1.17938 14.6625 2.23125C11.8681 3.315 9.49521 4.77063 7.13292 7.13292C4.77063 9.49521 3.31146 11.8646 2.23125 14.6625C1.17938 17.3719 0.463958 20.4531 0.255 24.9794C0.0425 29.5127 0 30.9542 0 42.5C0 54.0458 0.053125 55.4873 0.255 60.0206C0.4675 64.5433 1.17938 67.6281 2.23125 70.3375C3.315 73.1283 4.77063 75.5048 7.13292 77.8671C9.49521 80.2258 11.8646 81.6885 14.6625 82.7688C17.3754 83.8171 20.4567 84.536 24.9794 84.745C29.5127 84.9575 30.9542 85 42.5 85C54.0458 85 55.4873 84.9469 60.0206 84.745C64.5433 84.5325 67.6281 83.8171 70.3375 82.7688C73.1283 81.685 75.5048 80.2258 77.8671 77.8671C80.2258 75.5048 81.6885 73.139 82.7688 70.3375C83.8171 67.6281 84.536 64.5433 84.745 60.0206C84.9575 55.4873 85 54.0458 85 42.5C85 30.9542 84.9469 29.5127 84.745 24.9794C84.5325 20.4567 83.8171 17.3683 82.7688 14.6625C81.685 11.8681 80.2258 9.49521 77.8671 7.13292C75.5048 4.77063 73.139 3.31146 70.3375 2.23125C67.6281 1.17938 64.5433 0.463958 60.0206 0.255C55.4873 0.0425 54.0458 0 42.5 0ZM42.5 7.65C53.844 7.65 55.1969 7.70667 59.6771 7.90146C63.8208 8.09625 66.0698 8.78333 67.5644 9.37125C69.5548 10.1398 70.9644 11.0606 72.459 12.5446C73.9429 14.0321 74.8637 15.4452 75.6323 17.4356C76.2131 18.9302 76.9073 21.1792 77.095 25.3229C77.2969 29.8067 77.3429 31.1525 77.3429 42.5C77.3429 53.8475 77.2898 55.1969 77.0808 59.6771C76.8648 63.8208 76.1742 66.0698 75.5898 67.5644C74.7965 69.5548 73.8933 70.9644 72.4058 72.459C70.9219 73.9429 69.4875 74.8637 67.5183 75.6323C66.0308 76.2131 63.7465 76.9073 59.6027 77.095C55.0906 77.2969 53.7625 77.3429 42.3938 77.3429C31.0215 77.3429 29.6933 77.2898 25.1848 77.0808C21.0375 76.8648 18.7531 76.1742 17.2656 75.5898C15.2504 74.7965 13.8656 73.8933 12.3817 72.4058C10.8906 70.9219 9.93792 69.4875 9.19417 67.5183C8.60979 66.0308 7.92271 63.7465 7.70667 59.6027C7.54729 55.1402 7.49063 53.7625 7.49063 42.4469C7.49063 31.1277 7.54729 29.7465 7.70667 25.2308C7.92271 21.0871 8.60979 18.8062 9.19417 17.3188C9.93792 15.3 10.8906 13.9188 12.3817 12.4277C13.8656 10.9438 15.2504 9.9875 17.2656 9.24729C18.7531 8.65938 20.9879 7.96875 25.1317 7.75625C29.6473 7.59688 30.9754 7.54375 42.3406 7.54375L42.5 7.65ZM42.5 20.6763C30.4406 20.6763 20.6763 30.4513 20.6763 42.5C20.6763 54.5594 30.4513 64.3238 42.5 64.3238C54.5594 64.3238 64.3238 54.5488 64.3238 42.5C64.3238 30.4406 54.5488 20.6763 42.5 20.6763ZM42.5 56.6667C34.6729 56.6667 28.3333 50.3271 28.3333 42.5C28.3333 34.6729 34.6729 28.3333 42.5 28.3333C50.3271 28.3333 56.6667 34.6729 56.6667 42.5C56.6667 50.3271 50.3271 56.6667 42.5 56.6667ZM70.2879 19.8156C70.2879 22.6313 68 24.9156 65.1879 24.9156C62.3723 24.9156 60.0879 22.6277 60.0879 19.8156C60.0879 17.0035 62.3758 14.7192 65.1879 14.7192C67.9965 14.7156 70.2879 17.0035 70.2879 19.8156Z" fill="#FDFDFD"/>
</svg>
