<svg width="85" height="85" viewBox="0 0 85 85" fill="none" xmlns="http://www.w3.org/2000/svg">
<path d="M72.4165 72.4342H59.8294V52.7106C59.8294 48.0073 59.7338 41.9546 53.2702 41.9546C46.7075 41.9546 45.7052 47.0723 45.7052 52.3635V72.4342H33.1181V31.875H45.2094V37.4035H45.3723C47.0617 34.216 51.17 30.8515 57.3077 30.8515C70.0612 30.8515 72.42 39.2452 72.42 50.1713V72.4342H72.4165ZM18.9019 26.3252C14.8502 26.3252 11.5954 23.0456 11.5954 19.0117C11.5954 14.9813 14.8538 11.7052 18.9019 11.7052C22.9394 11.7052 26.2119 14.9813 26.2119 19.0117C26.2119 23.0456 22.9358 26.3252 18.9019 26.3252ZM25.2131 72.4342H12.5906V31.875H25.2131V72.4342ZM78.7135 0H6.27229C2.805 0 0 2.74125 0 6.12354V78.8765C0 82.2623 2.805 85 6.27229 85H78.7029C82.1667 85 85 82.2623 85 78.8765V6.12354C85 2.74125 82.1667 0 78.7029 0H78.7135Z" fill="#FDFDFD"/>
</svg>
