<svg width="216" height="114" viewBox="0 0 216 114" fill="none" xmlns="http://www.w3.org/2000/svg">
<path opacity="0.8" d="M108 110L216 7.69416e-06L3.29805e-08 7.62939e-06L108 110Z" fill="url(#paint0_linear_19992_39)"/>
<g clip-path="url(#clip0_19992_39)">
<circle cx="108" cy="69" r="45" fill="#FDFDFD"/>
<path d="M134.25 36.0406C133.102 36.2414 132.258 36.6888 130.863 37.8475C129.554 38.9317 128.509 39.6831 127.177 40.4976C126.27 41.0483 123.687 42.9068 121.563 44.5416C120.317 45.4938 119.662 45.9011 118.721 46.3026C117.349 46.8877 116.482 47.1171 114.042 47.5301C112.159 47.8456 110.954 48.0751 110.305 48.2414C108.893 48.597 106.516 49.75 104.949 50.8399C103.669 51.729 101.631 53.5015 99.9773 55.1649C99.4549 55.6869 98.8062 56.2892 98.5364 56.4957C97.4457 57.3332 95.2182 58.6582 93.4042 59.5473C91.4293 60.5168 90.3788 60.8667 87.893 61.3829C85.2006 61.9451 83.5473 62.4785 81.7562 63.3734C80.9008 63.7978 80.4932 64.0387 79.655 64.5951C78.5987 65.3064 78.5069 65.3925 78.5069 65.6793C78.5069 66.1726 78.903 67.1363 79.5 68.0999C79.9249 68.7883 81.0558 70.1018 82.2671 71.3064C83.9434 72.9871 85.1949 73.9106 87.2902 75.0292C87.7495 75.2758 88.1456 75.4938 88.1686 75.5168C88.1915 75.5397 87.8643 76.142 87.4452 76.8475C86.3775 78.6315 85.3499 80.4843 84.3854 82.3715C83.3176 84.4709 82.9502 85.3084 82.2384 87.2529C81.5208 89.2261 81.1017 90.2586 80.3439 91.9279C79.1326 94.6009 78.3002 97.0674 78.0419 98.7309C77.9673 99.2242 77.9902 99.3848 78.128 99.3848C78.2256 99.3848 78.3519 99.0177 78.6447 97.8877C79.3163 95.3237 80.0339 94.0101 81.8193 92.0713C83.2086 90.5627 83.9204 89.9718 84.9595 89.4556C86.1306 88.882 86.6817 88.8303 87.5084 89.2376C88.8173 89.8801 90.1779 92.2606 90.8495 95.1057C91.1366 96.316 91.303 98.7711 91.1997 100.331C91.039 102.729 90.3329 106.062 89.4775 108.505C89.2478 109.153 89.1962 109.423 89.288 109.423C89.4258 109.423 89.7071 108.93 90.3041 107.645C91.7738 104.49 92.566 102.001 93.1573 98.7252C93.3353 97.7328 93.341 97.6353 93.3468 96.1439C93.3468 95.1688 93.318 94.4059 93.2721 94.0789C92.9966 92.1688 92.1125 89.7481 89.9999 85.1305C88.7484 82.3944 88.4728 81.3447 88.404 79.0789C88.3753 78.2127 88.3867 77.7768 88.4614 77.1573C88.5762 76.228 88.6336 76.0043 88.7886 75.9183C88.8575 75.8839 89.5923 75.838 90.5223 75.8093C92.411 75.7519 92.7095 75.7003 94.6671 75.1095C95.9129 74.7366 98.3757 73.5722 100.035 72.5741C100.494 72.3045 100.93 72.0636 101.005 72.0407C101.235 71.9833 101.395 72.2242 101.441 72.6946C101.493 73.2051 101.55 73.446 101.768 74.0024C102.251 75.23 103.077 76.7787 103.961 78.1324C105.569 80.5818 107.423 82.578 109.995 84.6487C112.021 86.272 113.307 87.8208 114.301 89.8342C115.001 91.2567 115.271 92.2548 115.506 94.3657C115.586 95.0885 115.661 95.708 115.673 95.7424C115.701 95.8399 115.816 95.3638 115.885 94.8533C115.971 94.2453 115.914 92.576 115.793 92.0139C115.615 91.1994 114.829 89.0368 114.329 88.0043C114.146 87.62 113.537 86.5072 112.974 85.5321C111.206 82.4403 110.569 80.9833 110.42 79.7099C110.276 78.4365 110.426 76.6009 110.799 75.1611C111.31 73.1707 112.693 70.6869 114.972 67.664C115.948 66.3619 116.373 65.7137 116.861 64.7558C117.418 63.6659 117.883 62.3294 118.089 61.2051C118.233 60.4594 118.279 58.8647 118.227 56.794C118.147 53.7194 118.158 53.0885 118.29 52.4345C118.411 51.8208 118.531 51.3619 118.773 50.5473C118.882 50.1802 118.922 49.9106 118.922 49.5722V49.1076L118.612 49.9106C117.888 51.8093 117.406 52.8533 116.884 53.6391C116.235 54.6085 115.718 55.0445 114.358 55.7844C113.106 56.467 113.061 56.5473 114.025 56.3982C114.588 56.3122 114.691 56.3122 115.133 56.3867C116.149 56.5646 116.723 56.8342 116.97 57.2357C117.165 57.5569 117.263 58.1535 117.268 59.0311C117.268 59.6334 117.246 59.9317 117.171 60.1783C116.987 60.8265 115.328 63.9642 114.588 65.0827C114.163 65.7194 113.124 66.8839 112.538 67.3772C112.062 67.7787 111.734 67.9508 111.453 67.9508C110.954 67.9508 110.098 67.2911 109.679 66.5741C109.197 65.7653 108.95 64.6525 109.008 63.5684C109.111 61.6755 109.8 58.4747 110.489 56.6793C111.235 54.7405 112.308 53.6334 114.042 53.0139C114.536 52.8361 114.582 52.8016 114.995 52.2854C115.391 51.7863 115.862 51.3447 116.712 50.6563C117.63 49.9106 117.624 49.9164 117.372 49.968C117.131 50.0196 116.694 50.2319 116.35 50.467C116.023 50.6907 115.357 50.9948 113.927 51.5741C111.884 52.4058 111.798 52.4575 111.384 53.0827C111.04 53.599 110.982 53.7309 109.691 57.1668C107.595 62.7366 107.567 62.8858 107.44 69.098C107.4 71.2433 107.383 71.5244 107.274 71.9374C107.119 72.5168 106.838 73.1133 106.533 73.4919C106.097 74.0426 105.362 74.2491 104.754 74.0024C104.289 73.8131 103.778 73.0846 103.232 71.8514C102.572 70.3428 102.302 68.9489 102.308 67.0617C102.308 65.0885 102.653 63.3906 103.422 61.4976C103.548 61.1879 103.646 60.9298 103.634 60.9183C103.605 60.8896 102.922 61.7271 102.681 62.0885C101.998 63.1324 101.424 64.8246 101.114 66.7003C101.005 67.3542 100.988 67.6812 100.988 68.9546C100.993 69.7749 101.022 70.6124 101.057 70.8189C101.108 71.1458 101.103 71.2089 101.016 71.3351C100.741 71.7252 99.7477 71.7137 98.3297 71.3007C97.3997 71.0311 96.7797 70.664 95.3962 69.5684C93.5477 68.0942 92.5258 67.446 91.768 67.2567C91.2514 67.1248 90.2984 67.1649 89.5578 67.3428C88.5819 67.5779 88.5417 67.6697 89.3512 67.7787C89.621 67.8131 89.9425 67.8992 90.0688 67.9623C90.9529 68.4039 91.9804 69.4709 92.4856 70.469C92.7555 71.0082 92.8071 71.2261 92.8645 72.1324L92.9277 73.0158L92.589 73.3542C91.636 74.3236 90.6199 74.8915 89.8334 74.8915C89.2478 74.8915 87.9734 74.5129 87.0319 74.0598C85.1489 73.1592 82.8526 70.7959 82.0604 68.9374C81.871 68.5072 81.8652 68.467 81.848 67.5722C81.8308 66.7061 81.8365 66.62 81.9686 66.2357C82.1867 65.6104 82.445 65.2261 83.0134 64.6468C83.7195 63.9355 84.3165 63.5454 85.4245 63.0751C87.3936 62.2433 89.311 61.8705 91.6475 61.8705C92.7325 61.8705 93.3984 61.9565 94.0069 62.1688C95.4306 62.6735 96.4755 63.4594 97.5892 64.882C98.3412 65.8342 98.7144 66.1783 98.7144 65.903C98.7144 65.8514 98.5594 65.4097 98.3642 64.9278C97.9508 63.8781 97.8647 63.4995 97.8131 62.5875C97.7097 60.5053 98.2723 58.6353 99.5468 56.8571C100.66 55.2911 102.004 53.8112 102.894 53.1573C103.433 52.7615 104.317 52.3026 104.639 52.251C104.955 52.2051 105.31 52.4058 105.862 52.9565C106.235 53.3294 106.367 53.5015 106.464 53.7653C106.568 54.0406 107.326 56.7596 107.423 57.207C107.492 57.5168 107.538 57.2758 107.578 56.4326C107.641 54.9756 107.854 54.1382 108.462 52.9508C108.732 52.4288 108.87 52.2395 109.249 51.8609C109.633 51.4709 109.811 51.3447 110.328 51.0865L110.954 50.771H111.677C112.079 50.771 112.682 50.7825 113.02 50.7997C113.818 50.8399 113.847 50.8112 113.537 50.3236C113.405 50.1229 113.296 49.8992 113.296 49.8189C113.296 49.6525 113.612 49.1018 113.962 48.6544C114.168 48.3963 114.301 48.293 114.685 48.1095C115.506 47.7194 116.465 47.4441 117.584 47.272C118.796 47.0942 118.916 47.1458 118.933 47.8571C118.933 48.1037 118.933 48.3504 118.928 48.4135C118.91 48.62 119.088 48.3905 119.513 47.6793C119.737 47.2949 119.984 46.8934 120.064 46.7844C120.742 45.8552 121.827 44.9317 122.866 44.4154C123.669 44.0081 124.02 44.0253 124.49 44.4785C124.823 44.8055 124.892 45.0177 124.892 45.7232C124.892 46.4231 124.806 46.7099 123.945 48.838C122.785 51.7232 121.97 54.0234 121.769 54.9986C121.66 55.5206 121.643 56.8743 121.741 57.5397C121.832 58.2108 122.068 58.9164 122.171 58.8131C122.194 58.7959 122.234 58.3141 122.257 57.7577C122.338 55.8647 122.602 54.8552 123.457 53.1458C123.956 52.1477 124.421 51.4307 125.432 50.1114C126.804 48.3332 127.384 47.3867 128.044 45.8724C128.319 45.2529 128.434 44.8112 128.796 43.0502C129.307 40.532 129.41 40.228 129.973 39.511C130.254 39.1496 130.553 38.8858 130.61 38.9374C130.621 38.9546 130.581 39.1095 130.518 39.2873C130.369 39.706 130.375 39.9297 130.535 40.2452C130.713 40.6066 130.949 40.7156 131.465 40.6869C132.16 40.6468 133.503 39.9986 133.503 39.706C133.503 39.6659 133.389 39.4823 133.245 39.3045C133.033 39.0292 132.987 38.9259 132.987 38.7309C132.987 38.4556 133.096 38.272 133.331 38.1515C133.681 37.968 134.02 38.0884 134.169 38.4441C134.29 38.7366 134.273 39.3447 134.135 39.6143C133.951 39.9756 133.974 40.0445 134.393 40.2739C135.111 40.6754 135.398 41.2261 135.398 42.207C135.398 43.2395 135.053 44.3982 134.187 46.3083C133.595 47.6104 133.119 48.7921 132.814 49.7385C132.217 51.5741 131.638 52.5894 129.869 54.924C129.427 55.5091 128.922 56.2146 128.75 56.5015C127.946 57.815 127.24 59.7997 126.988 61.4575C126.879 62.1401 126.815 63.9412 126.884 64.2452C126.913 64.3714 126.959 64.4804 126.993 64.4919C127.028 64.5034 127.154 64.2567 127.275 63.9527C127.774 62.6735 127.935 62.3925 128.4 61.9852C129.221 61.2567 133.412 57.8896 134.617 56.9833C135.467 56.3466 136.133 55.9852 136.644 55.8934C136.977 55.8303 137.011 55.8361 137.304 55.9795C137.711 56.1802 138.125 56.599 138.326 57.0234C139.112 58.6755 138.682 62.1458 137.35 64.882C136.311 67.0158 134.812 68.7596 132.637 70.3714C130.156 72.2127 128.807 73.5206 127.567 75.2931C126.769 76.4345 126.31 77.4326 125.954 78.8265C125.776 79.5206 125.495 81.1382 125.547 81.1898C125.558 81.2013 125.639 81.1152 125.725 81.0063C125.851 80.8399 125.891 80.7022 125.954 80.1745C126.115 78.8954 126.741 77.5301 127.843 76.0674C128.354 75.3963 129.347 74.404 129.657 74.2663C130.179 74.0254 130.702 74.1516 130.949 74.576C131.247 75.0866 131.247 75.3906 130.954 78.2185C130.742 80.2433 130.69 81.5225 130.754 83.0655C130.828 84.924 131.041 86.6277 131.219 86.794C131.264 86.8342 131.27 86.6334 131.242 86.077C131.15 84.1439 131.138 82.7787 131.201 81.7462C131.402 78.5741 131.971 76.0101 133.113 73.1707C134.026 70.8992 134.479 70.1477 137.447 65.9833C140.547 61.6353 141.001 60.8953 141.517 59.3867C141.931 58.1936 142.08 56.8399 141.948 55.5894C141.759 53.8686 141.414 53.054 140.387 51.9125L139.91 51.3848L139.347 51.815C138.515 52.4517 137.482 53.4154 136.655 54.3275C135.892 55.1764 135.679 55.3255 135.536 55.1305C135.375 54.9125 135.329 54.5684 135.358 53.8972C135.392 53.1229 135.484 52.7787 136.104 51.1152C136.913 48.9527 137.556 46.8131 137.929 45.0751C138.176 43.9164 138.217 42.8609 138.044 42.0808C137.872 41.2949 137.671 40.9336 137.04 40.2624C136.512 39.6946 136.5 39.6774 136.466 39.3504C136.322 37.9909 135.645 36.3274 135.134 36.0865C134.962 36.0062 134.571 35.9833 134.25 36.0406Z" fill="#210234"/>
<path d="M125.684 68.1976C125.604 68.3008 125.403 68.6278 125.237 68.926C124.737 69.8381 124.358 70.3429 122.768 72.253C121.74 73.4977 121.149 74.3983 120.426 75.8381C119.984 76.7157 119.714 77.1287 119.576 77.1287C119.393 77.1287 119.215 76.4748 119.117 75.4366C119.083 75.0867 119.071 75.058 119.031 75.2071C118.853 75.8266 118.778 76.7501 118.784 78.3046C118.79 81.7521 119.381 84.9987 120.5 87.7119C120.782 88.3945 121.379 89.5475 121.511 89.6679C121.614 89.7655 121.62 89.754 121.62 89.4672C121.62 89.2492 121.522 88.8591 121.275 88.1192C120.885 86.9318 120.65 86.0083 120.46 84.9184C120.345 84.2473 120.328 83.9662 120.328 82.6067C120.328 80.7712 120.449 79.7444 120.851 78.1326C121.43 75.8209 122.108 74.3467 123.658 72.0236C124.215 71.1918 124.812 70.2568 124.99 69.9413C125.288 69.4079 125.926 68.1172 125.926 68.0427C125.926 67.9566 125.811 68.0255 125.684 68.1976Z" fill="#210234"/>
</g>
<defs>
<linearGradient id="paint0_linear_19992_39" x1="-16.3521" y1="46.7123" x2="140.565" y2="1.33576" gradientUnits="userSpaceOnUse">
<stop stop-color="#2C56FF"/>
<stop offset="1" stop-color="#9D34C3"/>
</linearGradient>
<clipPath id="clip0_19992_39">
<rect width="90" height="90" fill="white" transform="translate(63 24)"/>
</clipPath>
</defs>
</svg>
