<svg width="90" height="90" viewBox="0 0 90 90" fill="none" xmlns="http://www.w3.org/2000/svg">
<g clip-path="url(#clip0_19907_562)">
<circle cx="45" cy="45" r="45" fill="#FDFDFD"/>
<path d="M71.2497 12.0406C70.1015 12.2414 69.2576 12.6888 67.8626 13.8475C66.5537 14.9317 65.5089 15.6831 64.177 16.4976C63.27 17.0483 60.6867 18.9068 58.5626 20.5416C57.3168 21.4938 56.6624 21.9011 55.7209 22.3026C54.3489 22.8877 53.482 23.1171 51.0422 23.5301C49.1592 23.8456 47.9537 24.0751 47.305 24.2414C45.8927 24.597 43.5161 25.75 41.9488 26.8399C40.6686 27.729 38.6307 29.5015 36.9773 31.1649C36.4549 31.6869 35.8062 32.2892 35.5364 32.4957C34.4457 33.3332 32.2182 34.6582 30.4042 35.5473C28.4293 36.5168 27.3788 36.8667 24.893 37.3829C22.2006 37.9451 20.5473 38.4785 18.7562 39.3734C17.9008 39.7978 17.4932 40.0387 16.655 40.5951C15.5987 41.3064 15.5069 41.3925 15.5069 41.6793C15.5069 42.1726 15.903 43.1363 16.5 44.0999C16.9249 44.7883 18.0558 46.1018 19.2671 47.3064C20.9434 48.9871 22.1949 49.9106 24.2902 51.0292C24.7495 51.2758 25.1456 51.4938 25.1686 51.5168C25.1915 51.5397 24.8643 52.142 24.4452 52.8475C23.3775 54.6315 22.3499 56.4843 21.3854 58.3715C20.3176 60.4709 19.9502 61.3084 19.2384 63.2529C18.5208 65.2261 18.1017 66.2586 17.3439 67.9279C16.1326 70.6009 15.3002 73.0674 15.0419 74.7309C14.9673 75.2242 14.9902 75.3848 15.128 75.3848C15.2256 75.3848 15.3519 75.0177 15.6447 73.8877C16.3163 71.3237 17.0339 70.0101 18.8193 68.0713C20.2086 66.5627 20.9204 65.9718 21.9595 65.4556C23.1306 64.882 23.6817 64.8303 24.5084 65.2376C25.8173 65.8801 27.1779 68.2606 27.8495 71.1057C28.1366 72.316 28.303 74.7711 28.1997 76.3313C28.039 78.729 27.3329 82.0617 26.4775 84.5053C26.2478 85.1535 26.1962 85.4231 26.288 85.4231C26.4258 85.4231 26.7071 84.9298 27.3041 83.6449C28.7738 80.49 29.566 78.0005 30.1573 74.7252C30.3353 73.7328 30.341 73.6353 30.3468 72.1439C30.3468 71.1688 30.318 70.4059 30.2721 70.0789C29.9966 68.1688 29.1125 65.7481 26.9999 61.1305C25.7484 58.3944 25.4728 57.3447 25.404 55.0789C25.3753 54.2127 25.3867 53.7768 25.4614 53.1573C25.5762 52.228 25.6336 52.0043 25.7886 51.9183C25.8575 51.8839 26.5923 51.838 27.5223 51.8093C29.411 51.7519 29.7095 51.7003 31.6671 51.1095C32.9129 50.7366 35.3757 49.5722 37.0347 48.5741C37.494 48.3045 37.9303 48.0636 38.0049 48.0407C38.2346 47.9833 38.3953 48.2242 38.4412 48.6946C38.4929 49.2051 38.5503 49.446 38.7684 50.0024C39.2507 51.23 40.0773 52.7787 40.9614 54.1324C42.5688 56.5818 44.4231 58.578 46.995 60.6487C49.0214 62.272 50.3074 63.8208 51.3005 65.8342C52.0009 67.2567 52.2707 68.2548 52.5061 70.3657C52.5865 71.0885 52.6611 71.708 52.6726 71.7424C52.7013 71.8399 52.8161 71.3638 52.885 70.8533C52.9711 70.2453 52.9137 68.576 52.7931 68.0139C52.6152 67.1994 51.8287 65.0368 51.3292 64.0043C51.1455 63.62 50.537 62.5072 49.9744 61.5321C48.2063 58.4403 47.569 56.9833 47.4198 55.7099C47.2763 54.4365 47.4255 52.6009 47.7987 51.1611C48.3096 49.1707 49.6931 46.6869 51.9722 43.664C52.9481 42.3619 53.3729 41.7137 53.8609 40.7558C54.4178 39.6659 54.8828 38.3294 55.0894 37.2051C55.2329 36.4594 55.2789 34.8647 55.2272 32.794C55.1468 29.7194 55.1583 29.0885 55.2904 28.4345C55.4109 27.8208 55.5315 27.3619 55.7726 26.5473C55.8816 26.1802 55.9218 25.9106 55.9218 25.5722V25.1076L55.6118 25.9106C54.8885 27.8093 54.4063 28.8533 53.8839 29.6391C53.2352 30.6085 52.7185 31.0445 51.3579 31.7844C50.1064 32.467 50.0605 32.5473 51.025 32.3982C51.5876 32.3122 51.6909 32.3122 52.1329 32.3867C53.149 32.5646 53.7231 32.8342 53.97 33.2357C54.1652 33.5569 54.2628 34.1535 54.2685 35.0311C54.2685 35.6334 54.2455 35.9317 54.1709 36.1783C53.9872 36.8265 52.3281 39.9642 51.5876 41.0827C51.1627 41.7194 50.1237 42.8839 49.5381 43.3772C49.0616 43.7787 48.7344 43.9508 48.4531 43.9508C47.9537 43.9508 47.0983 43.2911 46.6792 42.5741C46.197 41.7653 45.9501 40.6525 46.0075 39.5684C46.1109 37.6755 46.7998 34.4747 47.4887 32.6793C48.235 30.7405 49.3085 29.6334 51.0422 29.0139C51.5359 28.8361 51.5818 28.8016 51.9952 28.2854C52.3913 27.7863 52.862 27.3447 53.7116 26.6563C54.6302 25.9106 54.6244 25.9164 54.3718 25.968C54.1307 26.0196 53.6944 26.2319 53.35 26.467C53.0228 26.6907 52.3568 26.9948 50.9274 27.5741C48.8837 28.4058 48.7976 28.4575 48.3842 29.0827C48.0398 29.599 47.9824 29.7309 46.6907 33.1668C44.5953 38.7366 44.5666 38.8858 44.4403 45.098C44.4001 47.2433 44.3829 47.5244 44.2738 47.9374C44.1188 48.5168 43.8375 49.1133 43.5333 49.4919C43.097 50.0426 42.3622 50.2491 41.7536 50.0024C41.2886 49.8131 40.7777 49.0846 40.2323 47.8514C39.5722 46.3428 39.3023 44.9489 39.3081 43.0617C39.3081 41.0885 39.6525 39.3906 40.4218 37.4976C40.5481 37.1879 40.6457 36.9298 40.6342 36.9183C40.6055 36.8896 39.9223 37.7271 39.6812 38.0885C38.9981 39.1324 38.424 40.8246 38.114 42.7003C38.0049 43.3542 37.9877 43.6812 37.9877 44.9546C37.9934 45.7749 38.0221 46.6124 38.0566 46.8189C38.1083 47.1458 38.1025 47.2089 38.0164 47.3351C37.7408 47.7252 36.7477 47.7137 35.3297 47.3007C34.3997 47.0311 33.7797 46.664 32.3962 45.5684C30.5477 44.0942 29.5258 43.446 28.768 43.2567C28.2514 43.1248 27.2984 43.1649 26.5578 43.3428C25.5819 43.5779 25.5417 43.6697 26.3512 43.7787C26.621 43.8131 26.9425 43.8992 27.0688 43.9623C27.9529 44.4039 28.9804 45.4709 29.4856 46.469C29.7555 47.0082 29.8071 47.2261 29.8645 48.1324L29.9277 49.0158L29.589 49.3542C28.636 50.3236 27.6199 50.8915 26.8334 50.8915C26.2478 50.8915 24.9734 50.5129 24.0319 50.0598C22.1489 49.1592 19.8526 46.7959 19.0604 44.9374C18.871 44.5072 18.8652 44.467 18.848 43.5722C18.8308 42.7061 18.8365 42.62 18.9686 42.2357C19.1867 41.6104 19.445 41.2261 20.0134 40.6468C20.7195 39.9355 21.3165 39.5454 22.4245 39.0751C24.3936 38.2433 26.311 37.8705 28.6475 37.8705C29.7325 37.8705 30.3984 37.9565 31.0069 38.1688C32.4306 38.6735 33.4755 39.4594 34.5892 40.882C35.3412 41.8342 35.7144 42.1783 35.7144 41.903C35.7144 41.8514 35.5594 41.4097 35.3642 40.9278C34.9508 39.8781 34.8647 39.4995 34.8131 38.5875C34.7097 36.5053 35.2723 34.6353 36.5468 32.8571C37.6605 31.2911 39.0038 29.8112 39.8936 29.1573C40.4333 28.7615 41.3173 28.3026 41.6388 28.251C41.9546 28.2051 42.3105 28.4058 42.8616 28.9565C43.2348 29.3294 43.3668 29.5015 43.4644 29.7653C43.5677 30.0406 44.3255 32.7596 44.4231 33.207C44.492 33.5168 44.5379 33.2758 44.5781 32.4326C44.6412 30.9756 44.8537 30.1382 45.4622 28.9508C45.732 28.4288 45.8698 28.2395 46.2487 27.8609C46.6333 27.4709 46.8112 27.3447 47.3279 27.0865L47.9537 26.771H48.677C49.0788 26.771 49.6816 26.7825 50.0203 26.7997C50.8183 26.8399 50.847 26.8112 50.537 26.3236C50.405 26.1229 50.2959 25.8992 50.2959 25.8189C50.2959 25.6525 50.6116 25.1018 50.9618 24.6544C51.1685 24.3963 51.3005 24.293 51.6852 24.1095C52.5061 23.7194 53.4648 23.4441 54.5842 23.272C55.7955 23.0942 55.9161 23.1458 55.9333 23.8571C55.9333 24.1037 55.9333 24.3504 55.9276 24.4135C55.9104 24.62 56.0883 24.3905 56.5131 23.6793C56.737 23.2949 56.9839 22.8934 57.0642 22.7844C57.7417 21.8552 58.8267 20.9317 59.8657 20.4154C60.6694 20.0081 61.0196 20.0253 61.4904 20.4785C61.8233 20.8055 61.8922 21.0177 61.8922 21.7232C61.8922 22.4231 61.8061 22.7099 60.945 24.838C59.7854 27.7232 58.9702 30.0234 58.7693 30.9986C58.6602 31.5206 58.643 32.8743 58.7405 33.5397C58.8324 34.2108 59.0678 34.9164 59.1711 34.8131C59.1941 34.7959 59.2343 34.3141 59.2572 33.7577C59.3376 31.8647 59.6017 30.8552 60.457 29.1458C60.9565 28.1477 61.4215 27.4307 62.4319 26.1114C63.8039 24.3332 64.3837 23.3867 65.0439 21.8724C65.3195 21.2529 65.4343 20.8112 65.7959 19.0502C66.3069 16.532 66.4102 16.228 66.9728 15.511C67.2541 15.1496 67.5526 14.8858 67.61 14.9374C67.6215 14.9546 67.5813 15.1095 67.5182 15.2873C67.3689 15.706 67.3746 15.9297 67.5354 16.2452C67.7134 16.6066 67.9487 16.7156 68.4654 16.6869C69.16 16.6468 70.5034 15.9986 70.5034 15.706C70.5034 15.6659 70.3885 15.4823 70.245 15.3045C70.0326 15.0292 69.9867 14.9259 69.9867 14.7309C69.9867 14.4556 70.0958 14.272 70.3311 14.1515C70.6813 13.968 71.02 14.0884 71.1693 14.4441C71.2898 14.7366 71.2726 15.3447 71.1348 15.6143C70.9511 15.9756 70.9741 16.0445 71.3932 16.2739C72.1108 16.6754 72.3978 17.2261 72.3978 18.207C72.3978 19.2395 72.0534 20.3982 71.1865 22.3083C70.5952 23.6104 70.1187 24.7921 69.8145 25.7385C69.2174 27.5741 68.6376 28.5894 66.8695 30.924C66.4274 31.5091 65.9222 32.2146 65.75 32.5015C64.9463 33.815 64.2402 35.7997 63.9876 37.4575C63.8785 38.1401 63.8154 39.9412 63.8843 40.2452C63.913 40.3714 63.9589 40.4804 63.9933 40.4919C64.0278 40.5034 64.1541 40.2567 64.2746 39.9527C64.7741 38.6735 64.9348 38.3925 65.3998 37.9852C66.2208 37.2567 70.4115 33.8896 71.6171 32.9833C72.4667 32.3466 73.1326 31.9852 73.6436 31.8934C73.9765 31.8303 74.011 31.8361 74.3037 31.9795C74.7113 32.1802 75.1247 32.599 75.3256 33.0234C76.1121 34.6755 75.6815 38.1458 74.3497 40.882C73.3106 43.0158 71.8123 44.7596 69.6365 46.3714C67.1565 48.2127 65.8074 49.5206 64.5674 51.2931C63.7695 52.4345 63.3102 53.4326 62.9543 54.8265C62.7763 55.5206 62.495 57.1382 62.5467 57.1898C62.5582 57.2013 62.6385 57.1152 62.7246 57.0063C62.8509 56.8399 62.8911 56.7022 62.9543 56.1745C63.115 54.8954 63.7407 53.5301 64.843 52.0674C65.3539 51.3963 66.347 50.404 66.6571 50.2663C67.1795 50.0254 67.7019 50.1516 67.9487 50.576C68.2472 51.0866 68.2472 51.3906 67.9545 54.2185C67.7421 56.2433 67.6904 57.5225 67.7535 59.0655C67.8282 60.924 68.0406 62.6277 68.2185 62.794C68.2645 62.8342 68.2702 62.6334 68.2415 62.077C68.1497 60.1439 68.1382 58.7787 68.2013 57.7462C68.4022 54.5741 68.9706 52.0101 70.113 49.1707C71.0258 46.8992 71.4793 46.1477 74.4473 41.9833C77.5473 37.6353 78.0008 36.8953 78.5175 35.3867C78.9308 34.1936 79.0801 32.8399 78.948 31.5894C78.7586 29.8686 78.4141 29.054 77.3865 27.9125L76.91 27.3848L76.3475 27.815C75.515 28.4517 74.4817 29.4154 73.655 30.3275C72.8915 31.1764 72.6791 31.3255 72.5356 31.1305C72.3748 30.9125 72.3289 30.5684 72.3576 29.8972C72.3921 29.1229 72.4839 28.7787 73.1039 27.1152C73.9134 24.9527 74.5563 22.8131 74.9295 21.0751C75.1763 19.9164 75.2165 18.8609 75.0443 18.0808C74.8721 17.2949 74.6712 16.9336 74.0397 16.2624C73.5115 15.6946 73.5 15.6774 73.4656 15.3504C73.3221 13.9909 72.6447 12.3274 72.1337 12.0865C71.9615 12.0062 71.5711 11.9833 71.2497 12.0406Z" fill="#210234"/>
<path d="M62.6844 44.1976C62.604 44.3008 62.4031 44.6278 62.2366 44.926C61.7372 45.8381 61.3583 46.3429 59.7681 48.253C58.7405 49.4977 58.1492 50.3983 57.4259 51.8381C56.9838 52.7157 56.714 53.1287 56.5762 53.1287C56.3925 53.1287 56.2146 52.4748 56.117 51.4366C56.0825 51.0867 56.071 51.058 56.0309 51.2071C55.8529 51.8266 55.7783 52.7501 55.784 54.3046C55.7897 57.7521 56.381 60.9987 57.5005 63.7119C57.7818 64.3945 58.3788 65.5475 58.5109 65.6679C58.6142 65.7655 58.6199 65.754 58.6199 65.4672C58.6199 65.2492 58.5223 64.8591 58.2755 64.1192C57.8851 62.9318 57.6497 62.0083 57.4603 60.9184C57.3455 60.2473 57.3283 59.9662 57.3283 58.6067C57.3283 56.7712 57.4488 55.7444 57.8507 54.1326C58.4305 51.8209 59.1079 50.3467 60.6579 48.0236C61.2148 47.1918 61.8118 46.2568 61.9898 45.9413C62.2883 45.4079 62.9255 44.1172 62.9255 44.0427C62.9255 43.9566 62.8107 44.0255 62.6844 44.1976Z" fill="#210234"/>
</g>
<defs>
<clipPath id="clip0_19907_562">
<rect width="90" height="90" fill="white"/>
</clipPath>
</defs>
</svg>
