<svg width="766" height="445" viewBox="0 0 766 445" fill="none" xmlns="http://www.w3.org/2000/svg">
<path d="M137.96 3.48272C201.304 -4.31219 273.394 2.96609 358.471 20.7373C443.352 38.8359 541.764 67.7553 609.078 121.204C675.649 174.653 712.408 252.96 743.928 332.571C774.902 411.854 769.861 395.282 743.928 446.999C659 446.999 693.986 437.917 609.078 446.999C505.5 446.999 381.5 446.999 273 446.999C176.5 446.999 159.5 446.999 66.3021 427.177C-19.7042 356.679 -4.5 296.999 -4.5 220.999C-4.50003 144.999 -4.49996 165 -4.49998 52.9993C50.015 16.704 74.267 10.6223 137.96 3.48272Z" fill="url(#paint0_linear_19907_543)" fill-opacity="0.15"/>
<defs>
<linearGradient id="paint0_linear_19907_543" x1="520.5" y1="221" x2="507" y2="508.5" gradientUnits="userSpaceOnUse">
<stop stop-color="#1F3299"/>
<stop offset="1" stop-color="#210234"/>
</linearGradient>
</defs>
</svg>
